<svg width="512.000000pt" height="512.000000pt" viewBox="0 0 512.000000 512.000000" xmlns="http://www.w3.org/2000/svg">
  <g transform="translate(0.000000,512.000000) scale(0.100000,-0.100000)" fill="#ffffff" stroke="none">
    <path d="M0 2560 l0 -2560 2560 0 2560 0 0 2560 0 2560 -2560 0 -2560 0 0
-2560z m2781 2370 c212 -21 430 -73 625 -149 109 -42 224 -98 224 -107 0 -11
-1064 -1904 -1070 -1904 -3 0 -24 33 -47 73 -22 39 -197 351 -388 692 -432
770 -635 1135 -635 1140 0 9 123 67 224 106 188 73 408 126 613 148 114 12
336 12 454 1z m-946 -1270 c285 -509 529 -944 542 -967 l25 -43 -1112 0 -1112
0 7 83 c10 131 44 318 81 455 149 545 500 1031 972 1348 43 29 78 51 78 50 1
0 235 -417 519 -926z m2235 735 c292 -244 528 -555 668 -885 112 -262 172
-501 197 -782 l7 -78 -1111 0 -1111 0 29 51 c16 28 260 464 542 968 l514 918
87 -58 c48 -33 128 -93 178 -134z m-1687 -1958 c-10 -19 -254 -455 -542 -970
l-525 -935 -102 69 c-332 226 -617 558 -794 924 -72 149 -123 286 -160 430
-31 122 -65 319 -75 438 l-7 77 1111 0 1111 0 -17 -33z m2552 -49 c-16 -190
-65 -419 -130 -609 -42 -121 -146 -341 -212 -449 -134 -216 -345 -458 -535
-611 -100 -80 -241 -179 -255 -179 -4 0 -39 58 -77 128 -64 118 -928 1665
-983 1760 l-25 42 1112 0 1112 0 -7 -82z m-1834 -986 l536 -957 -66 -34 c-168
-86 -403 -161 -638 -202 l-128 -23 -240 0 -240 0 -125 21 c-138 24 -282 60
-399 99 -93 31 -313 126 -315 136 -1 9 1067 1918 1074 1917 3 0 246 -430 541
-957z" />
  </g>
  <g transform="translate(0.000000,512.000000) scale(0.100000,-0.100000)" fill="#007d3b" stroke="none">
    <path d="M2317 4939 c-205 -22 -425 -75 -613 -148 -85 -33 -219 -95 -232 -106
-2 -2 44 -90 104 -195 l107 -192 6 11 c10 15 203 87 313 116 51 13 138 32 193
42 l100 17 200 0 200 1 80 -13 c93 -15 255 -52 271 -61 l11 -6 -349 -640
c-193 -352 -353 -641 -358 -643 -8 -3 200 -382 210 -382 5 0 1074 1903 1085
1931 l6 16 -98 45 c-243 113 -494 182 -762 208 -119 12 -360 11 -474 -1z" />
    <path d="M1228 4547 c-129 -88 -237 -177 -348 -287 -299 -296 -515 -663 -624
-1062 -39 -143 -72 -329 -82 -465 l-7 -93 185 0 184 0 12 106 c7 59 28 166 47
238 75 295 208 553 403 786 44 52 106 121 139 152 l58 57 395 -669 395 -670
213 0 213 0 -3 15 c-6 29 -1083 1945 -1093 1944 -5 0 -44 -23 -87 -52z" />
    <path d="M3687 4404 l-109 -196 9 -8 c4 -4 53 -42 108 -83 246 -184 446 -426
585 -705 51 -103 124 -292 144 -374 l6 -28 -762 0 -763 0 -95 -171 c-52 -94
-96 -178 -98 -185 l-3 -14 1122 0 1122 0 -7 88 c-22 278 -84 526 -198 792
-140 330 -376 641 -668 885 -89 74 -262 195 -277 195 -4 0 -57 -89 -116 -196z" />
    <path d="M175 2388 c4 -51 15 -145 26 -208 41 -248 105 -450 209 -665 178
-367 463 -698 795 -925 57 -38 107 -70 112 -70 10 0 173 289 173 306 0 6 -26
28 -57 49 -213 140 -455 396 -581 612 -103 177 -183 365 -225 535 l-24 93 811
5 810 5 93 165 c51 91 93 171 93 178 l0 12 -1121 0 -1121 0 7 -92z" />
    <path d="M2710 2470 c0 -6 211 -388 469 -848 257 -460 501 -897 541 -970 39
-72 75 -132 79 -132 14 0 186 122 277 195 185 151 396 393 527 605 66 108 170
328 212 449 67 196 116 427 131 619 l7 92 -231 0 -231 0 -5 -32 c-3 -18 -8
-67 -11 -108 -9 -115 -50 -303 -95 -435 -95 -277 -249 -527 -459 -747 l-74
-78 -402 698 -402 697 -166 3 -167 2 0 -10z" />
    <path d="M2522 2328 c-636 -1131 -1052 -1883 -1049 -1892 6 -15 219 -107 337
-146 113 -37 270 -75 405 -97 l110 -18 240 0 240 0 110 19 c140 23 345 75 455
116 47 17 129 52 183 77 l98 46 -3 13 c-2 6 -43 85 -93 173 l-90 162 -20 -5
c-11 -2 -72 -27 -135 -55 -183 -80 -378 -129 -600 -152 l-115 -11 -135 6
c-133 5 -324 33 -407 58 l-43 13 365 704 c201 387 365 711 365 718 0 19 -169
323 -180 323 -4 0 -21 -24 -38 -52z" />
  </g>
  <g transform="translate(0.000000,512.000000) scale(0.100000,-0.100000)" fill="#0f7ae3" stroke="none">
    <path d="M590 2123 c0 -5 11 -52 25 -106 45 -177 123 -362 227 -540 124 -213
366 -469 573 -607 28 -18 55 -39 61 -47 l12 -13 366 654 c201 360 366 657 366
660 0 3 -367 6 -815 6 -448 0 -815 -3 -815 -7z" />
  </g>
  <g transform="translate(0.000000,512.000000) scale(0.100000,-0.100000)" fill="#c80006" stroke="none">
    <path d="M3030 2475 c0 -2 183 -322 407 -711 l408 -707 90 95 c211 222 358
462 455 743 43 125 85 313 95 425 3 36 8 86 11 113 l5 47 -736 0 c-404 0 -735
-2 -735 -5z" />
  </g>
  <g transform="translate(0.000000,512.000000) scale(0.100000,-0.100000)" fill="#cb004d" stroke="none">
    <path d="M1093 3896 c-149 -156 -274 -328 -358 -495 -95 -191 -172 -443 -198
-651 l-13 -105 368 -3 c202 -1 534 -1 737 0 l369 3 -396 672 c-218 370 -402
673 -408 673 -7 0 -52 -42 -101 -94z" />
  </g>
  <g transform="translate(0.000000,512.000000) scale(0.100000,-0.100000)" fill="#fcb40d" stroke="none">
    <path d="M2730 2064 c0 -6 -164 -328 -365 -715 -201 -387 -365 -709 -365 -715
0 -27 255 -72 455 -81 l140 -6 120 12 c225 22 420 71 605 153 63 27 123 51
133 51 9 1 17 3 17 4 0 8 -715 1280 -727 1293 l-13 14 0 -10z" />
  </g>
  <g transform="translate(0.000000,512.000000) scale(0.100000,-0.100000)" fill="#2a329a" stroke="none">
    <path d="M3244 3613 c-186 -333 -340 -608 -342 -611 -1 -4 344 -6 768 -4 l770
2 0 18 c0 39 -93 288 -148 399 -88 177 -165 291 -299 444 -89 103 -203 205
-329 298 l-81 59 -339 -605z" />
  </g>
  <g transform="translate(0.000000,512.000000) scale(0.100000,-0.100000)" fill="#70bd44" stroke="none">
    <path d="M2280 4489 c-182 -22 -335 -60 -505 -125 l-96 -37 3 -18 c5 -28 662
-1198 673 -1199 6 0 152 260 325 577 173 317 334 611 357 654 l42 77 -83 21
c-46 11 -125 28 -177 36 l-94 16 -185 4 c-102 2 -219 0 -260 -6z" />
  </g>
  <g transform="translate(0.000000,512.000000) scale(0.100000,-0.100000)" fill="#131354" stroke="none">
    <path d="M3930 4517 c0 -3 26 -24 58 -48 31 -23 52 -36 45 -28 -14 17 -103 83
-103 76z" />
    <path d="M4414 4057 c21 -26 40 -47 43 -47 7 0 -56 78 -70 87 -6 4 6 -14 27
-40z" />
    <path d="M4537 3888 c31 -46 61 -87 66 -93 l10 -10 -8 15 c-20 36 -106 159
-115 165 -5 3 16 -31 47 -77z" />
    <path d="M4682 3645 c18 -35 34 -63 36 -61 4 5 -56 126 -63 126 -3 0 10 -29
27 -65z" />
    <path d="M2720 2681 c-5 -11 -10 -24 -10 -30 l0 -11 1120 0 1120 0 -1 28 -2
27 -4 -22 -4 -23 -1110 0 c-610 0 -1109 3 -1109 6 0 3 5 14 10 25 6 10 8 19 6
19 -3 0 -10 -9 -16 -19z" />
  </g>
  <g transform="translate(0.000000,512.000000) scale(0.100000,-0.100000)" fill="#5e0108" stroke="none">
    <path d="M888 2643 c204 -2 540 -2 745 0 204 1 37 2 -373 2 -410 0 -577 -1
-372 -2z" />
    <path d="M3022 2475 c7 -7 1479 -7 1486 0 3 3 -331 5 -743 5 -412 0 -746 -2
-743 -5z" />
    <path d="M4270 905 c-24 -25 -42 -45 -39 -45 3 0 25 20 49 45 24 25 42 45 39
45 -3 0 -25 -20 -49 -45z" />
  </g>
  <g transform="translate(0.000000,512.000000) scale(0.100000,-0.100000)" fill="#061420" stroke="none">
    <path d="M520 1317 c0 -9 71 -117 78 -117 2 0 -4 12 -13 28 -44 67 -65 96 -65
89z" />
    <path d="M870 865 c29 -30 55 -53 57 -51 5 5 -94 106 -104 106 -4 0 17 -25 47
-55z" />
  </g>
  <g transform="translate(0.000000,512.000000) scale(0.100000,-0.100000)" fill="#123287" stroke="none">
    <path d="M177 2473 c-4 -3 -7 -11 -7 -17 l0 -11 8 12 8 13 1115 3 1114 2
-1116 3 c-614 1 -1119 -1 -1122 -5z" />
  </g>
  <g transform="translate(0.000000,512.000000) scale(0.100000,-0.100000)" fill="#480310" stroke="none">
    <path d="M172 2683 l-2 -43 183 2 182 3 -177 2 -177 3 -4 38 -4 37 -1 -42z" />
    <path d="M2195 2650 l-210 -6 218 -2 218 -2 -6 10 c-3 6 -7 9 -8 8 -1 -1 -96
-5 -212 -8z" />
    <path d="M2702 2474 c9 -8 337 -10 331 -1 -2 4 -79 7 -170 7 -92 0 -164 -2
-161 -6z" />
    <path d="M4497 2473 c-3 -5 63 -7 146 -5 284 4 313 8 85 10 -125 1 -229 -1
-231 -5z" />
  </g>
  <g transform="translate(0.000000,512.000000) scale(0.100000,-0.100000)" fill="#220a07" stroke="none">
    <path d="M870 4255 c-30 -30 -50 -55 -45 -54 10 1 112 109 104 109 -3 0 -29
-25 -59 -55z" />
    <path d="M424 3639 c-19 -39 -34 -73 -32 -75 2 -2 21 30 41 71 20 41 35 75 32
75 -3 0 -21 -32 -41 -71z" />
    <path d="M3307 298 c-32 -11 -56 -22 -54 -24 5 -5 99 26 112 37 12 11 11 11
-58 -13z" />
  </g>
  <g transform="translate(0.000000,512.000000) scale(0.100000,-0.100000)" fill="#bf7b16" stroke="none">
    <path d="M2533 173 c20 -2 54 -2 75 0 20 2 3 4 -38 4 -41 0 -58 -2 -37 -4z" />
  </g>
  <g transform="translate(0.000000,512.000000) scale(0.100000,-0.100000)" fill="#8f5318" stroke="none" />
  <g transform="translate(0.000000,512.000000) scale(0.100000,-0.100000)" fill="#5d3f0a" stroke="none" />
  <g transform="translate(0.000000,512.000000) scale(0.100000,-0.100000)" fill="#1156b3" stroke="none" />
  <g transform="translate(0.000000,512.000000) scale(0.100000,-0.100000)" fill="#780a36" stroke="none" />
  <g transform="translate(0.000000,512.000000) scale(0.100000,-0.100000)" fill="#b8b705" stroke="none" />
  <g transform="translate(0.000000,512.000000) scale(0.100000,-0.100000)" fill="#626b26" stroke="none" />
  <g transform="translate(0.000000,512.000000) scale(0.100000,-0.100000)" fill="#820711" stroke="none" />
  <g transform="translate(0.000000,512.000000) scale(0.100000,-0.100000)" fill="#0b5240" stroke="none" />
  <g transform="translate(0.000000,512.000000) scale(0.100000,-0.100000)" fill="#488743" stroke="none" />
  <g transform="translate(0.000000,512.000000) scale(0.100000,-0.100000)" fill="#948c2b" stroke="none" />
</svg>